<svg xmlns="http://www.w3.org/2000/svg" width="22.748" height="22.748" viewBox="0 0 22.748 22.748">
  <g id="config_light" transform="translate(0 0)">
    <path id="Caminho_77" data-name="Caminho 77" d="M139.409,133.609a5.8,5.8,0,1,0,5.8,5.8A5.807,5.807,0,0,0,139.409,133.609Zm0,10.151a4.35,4.35,0,1,1,4.35-4.35A4.355,4.355,0,0,1,139.409,143.76Zm0,0" transform="translate(-128.035 -128.035)" fill="#7f879b"/>
    <path id="Caminho_78" data-name="Caminho 78" d="M22.213,8.784,20.464,8.4A9.515,9.515,0,0,0,19.9,7.047l.968-1.506a.68.68,0,0,0-.091-.848L18.055,1.969a.68.68,0,0,0-.848-.091L15.7,2.846a9.515,9.515,0,0,0-1.357-.563L13.964.535A.68.68,0,0,0,13.3,0H9.448a.68.68,0,0,0-.664.535L8.4,2.283a9.515,9.515,0,0,0-1.357.563L5.541,1.878a.68.68,0,0,0-.848.091L1.969,4.693a.68.68,0,0,0-.091.848l.968,1.506A9.515,9.515,0,0,0,2.284,8.4l-1.748.38A.68.68,0,0,0,0,9.448V13.3a.68.68,0,0,0,.535.664l1.748.38A9.515,9.515,0,0,0,2.846,15.7l-.968,1.506a.68.68,0,0,0,.091.848l2.724,2.724a.68.68,0,0,0,.848.091L7.047,19.9a9.516,9.516,0,0,0,1.357.563l.38,1.748a.68.68,0,0,0,.664.535H13.3a.68.68,0,0,0,.664-.535l.38-1.748A9.515,9.515,0,0,0,15.7,19.9l1.506.968a.68.68,0,0,0,.848-.091l2.724-2.724a.68.68,0,0,0,.091-.848L19.9,15.7a9.516,9.516,0,0,0,.563-1.357l1.748-.38a.68.68,0,0,0,.535-.664V9.448A.68.68,0,0,0,22.213,8.784Zm-.824,3.968-1.6.348a.68.68,0,0,0-.51.482,8.156,8.156,0,0,1-.753,1.816.68.68,0,0,0,.02.7l.888,1.381L17.481,19.43,16.1,18.542a.679.679,0,0,0-.7-.02,8.16,8.16,0,0,1-1.816.753.68.68,0,0,0-.482.51l-.348,1.6H10l-.348-1.6a.68.68,0,0,0-.482-.51,8.156,8.156,0,0,1-1.816-.753.68.68,0,0,0-.7.02l-1.381.888L3.318,17.481,4.206,16.1a.68.68,0,0,0,.02-.7,8.164,8.164,0,0,1-.753-1.816.68.68,0,0,0-.51-.482l-1.6-.348V10l1.6-.348a.68.68,0,0,0,.51-.482A8.156,8.156,0,0,1,4.226,7.35a.68.68,0,0,0-.02-.7L3.318,5.267,5.267,3.318l1.381.888a.679.679,0,0,0,.7.02,8.161,8.161,0,0,1,1.816-.753.68.68,0,0,0,.482-.51L10,1.359h2.756l.348,1.6a.68.68,0,0,0,.482.51,8.156,8.156,0,0,1,1.816.753.68.68,0,0,0,.7-.02l1.381-.888L19.43,5.267l-.888,1.381a.68.68,0,0,0-.02.7,8.156,8.156,0,0,1,.753,1.816.68.68,0,0,0,.51.482l1.6.348Zm0,0" fill="#7f879b"/>
  </g>
</svg>
