<svg id="dashboard_light" xmlns="http://www.w3.org/2000/svg" width="25" height="17.524" viewBox="0 0 25 17.524">
  <g id="Grupo_63" data-name="Grupo 63">
    <path id="Caminho_69" data-name="Caminho 69" d="M16.5,77.2A12.479,12.479,0,0,0,0,89.079a19.093,19.093,0,0,0,.5,4.5.538.538,0,0,0,.5.5H23.875a.831.831,0,0,0,.625-.5,29.145,29.145,0,0,0,.5-4.5A12.385,12.385,0,0,0,16.5,77.2Zm-4,1.875a1.25,1.25,0,0,1,0,2.5,1.25,1.25,0,0,1,0-2.5ZM3.75,90.329a1.25,1.25,0,1,1,0-2.5,1.25,1.25,0,0,1,0,2.5Zm3.5-6.5a1.208,1.208,0,0,1-1.75,0,1.511,1.511,0,0,1-.125-1.875,1.208,1.208,0,0,1,1.75,0A1.511,1.511,0,0,1,7.25,83.829Zm5.25,7.75c-1.375,0-2.625-1.25-2.25-2.5s2.25-5,2.25-5,1.875,3.75,2.25,5S13.875,91.579,12.5,91.579Zm7.125-7.75a1.237,1.237,0,1,1,0-1.75A1.5,1.5,0,0,1,19.625,83.829Zm1.625,6.5a1.25,1.25,0,1,1,1.25-1.25A1.181,1.181,0,0,1,21.25,90.329Z" transform="translate(0 -76.555)" fill="#7f879b"/>
  </g>
</svg>
