<svg id="posts_light" xmlns="http://www.w3.org/2000/svg" width="20.415" height="20.416" viewBox="0 0 20.415 20.416">
  <g id="Grupo_66" data-name="Grupo 66">
    <g id="Grupo_65" data-name="Grupo 65">
      <path id="Caminho_71" data-name="Caminho 71" d="M19.907,6.425a1.8,1.8,0,0,0-2.538,0l-1.8,1.8V3.486a1.782,1.782,0,0,0-.526-1.269L13.352.526A1.783,1.783,0,0,0,12.083,0H1.812A1.8,1.8,0,0,0,.018,1.794V18.622a1.8,1.8,0,0,0,1.794,1.794H13.775a1.8,1.8,0,0,0,1.794-1.794V13.3l4.337-4.341A1.793,1.793,0,0,0,19.907,6.425ZM11.981,1.2a.653.653,0,0,1,.526.175L14.2,3.063a.653.653,0,0,1,.175.526H11.981Zm2.392,17.426a.6.6,0,0,1-.6.6H1.812a.6.6,0,0,1-.6-.6V1.794a.6.6,0,0,1,.6-.6h8.972V4.187a.6.6,0,0,0,.6.6h2.991V9.423L12.608,11.19l-.845.846a.6.6,0,0,0-.145.234l-.846,2.538a.6.6,0,0,0,.757.757l2.538-.846a.6.6,0,0,0,.234-.145l.073-.073v4.122Zm-1.341-6.164.846.846-.323.323-1.269.423.423-1.269Zm1.692,0-.846-.846,2.875-2.878.846.846Zm4.337-4.341-.617.617L17.6,7.888l.617-.617a.6.6,0,1,1,.846.846Z" transform="translate(-0.018)" fill="#7f879b"/>
    </g>
  </g>
  <g id="Grupo_68" data-name="Grupo 68" transform="translate(1.72 6.086)">
    <g id="Grupo_67" data-name="Grupo 67">
      <path id="Caminho_72" data-name="Caminho 72" d="M66.466,150H60.448a.43.43,0,1,0,0,.86h6.018a.43.43,0,1,0,0-.86Z" transform="translate(-60.018 -150)" fill="#7f879b"/>
    </g>
  </g>
  <g id="Grupo_70" data-name="Grupo 70" transform="translate(1.72 8.52)">
    <g id="Grupo_69" data-name="Grupo 69">
      <path id="Caminho_73" data-name="Caminho 73" d="M64.747,210h-4.3a.43.43,0,0,0,0,.86h4.3a.43.43,0,0,0,0-.86Z" transform="translate(-60.018 -210)" fill="#7f879b"/>
    </g>
  </g>
  <g id="Grupo_72" data-name="Grupo 72" transform="translate(1.72 10.955)">
    <g id="Grupo_71" data-name="Grupo 71">
      <path id="Caminho_74" data-name="Caminho 74" d="M64.747,270h-4.3a.43.43,0,1,0,0,.86h4.3a.43.43,0,0,0,0-.86Z" transform="translate(-60.018 -270)" fill="#7f879b"/>
    </g>
  </g>
  <g id="Grupo_74" data-name="Grupo 74" transform="translate(1.72 13.389)">
    <g id="Grupo_73" data-name="Grupo 73">
      <path id="Caminho_75" data-name="Caminho 75" d="M64.747,330h-4.3a.43.43,0,1,0,0,.86h4.3a.43.43,0,0,0,0-.86Z" transform="translate(-60.018 -330)" fill="#7f879b"/>
    </g>
  </g>
  <g id="Grupo_76" data-name="Grupo 76" transform="translate(7.796 17.837)">
    <g id="Grupo_75" data-name="Grupo 75">
      <path id="Caminho_76" data-name="Caminho 76" d="M183.027,422h-2.579a.43.43,0,1,0,0,.86h2.579a.43.43,0,1,0,0-.86Z" transform="translate(-180.018 -422)" fill="#7f879b"/>
    </g>
  </g>
</svg>
