<?xml version="1.0"?>
<svg xmlns="http://www.w3.org/2000/svg" xmlns:xlink="http://www.w3.org/1999/xlink" xmlns:svgjs="http://svgjs.com/svgjs" version="1.1" width="512" height="512" x="0" y="0" viewBox="0 0 512 512" style="enable-background:new 0 0 512 512" xml:space="preserve" class=""><g><linearGradient xmlns="http://www.w3.org/2000/svg" id="SVGID_1_" gradientUnits="userSpaceOnUse" x1="256" x2="256" y1="481" y2="31"><stop stop-opacity="1" stop-color="#330379" offset="0"/><stop stop-opacity="1" stop-color="#7e268e" offset="1"/></linearGradient><g xmlns="http://www.w3.org/2000/svg"><g><g><path d="m428.525 204.473c-50.277-50.277-116.037-79.457-186.525-83.089v-75.385c0-5.607-3.127-10.746-8.106-13.322s-10.981-2.161-15.557 1.077l-212 150c-3.975 2.812-6.337 7.377-6.337 12.245s2.362 9.433 6.336 12.245l212 150c4.576 3.238 10.578 3.654 15.557 1.077s8.106-7.715 8.106-13.322v-74.569c110.796 6.382 207.512 82.961 238.269 190.609l2.309 8.08c2.051 7.178 9.078 11.773 16.503 10.734 7.408-1.038 12.919-7.375 12.919-14.855v-60c.001-76.125-29.644-147.695-83.474-201.525zm-107.238 52.065c-30.371-10.311-62.093-15.539-94.287-15.539-8.284 0-15 6.716-15 15v61.012l-171.03-121.012 171.03-121.011v61.011c0 8.284 6.716 15 15 15 134.609 0 245.191 104.836 254.382 237.149-35.513-61.765-92.482-108.655-160.095-131.61z" fill="url(#SVGID_1_)" data-original="url(#SVGID_1_)" style=""/></g></g></g></g></svg>
