<?xml version="1.0" encoding="utf-8"?>
<!-- Generator: Adobe Illustrator 25.4.1, SVG Export Plug-In . SVG Version: 6.00 Build 0)  -->
<svg version="1.1" id="Layer_1" xmlns:svgjs="http://svgjs.com/svgjs"
	 xmlns="http://www.w3.org/2000/svg" xmlns:xlink="http://www.w3.org/1999/xlink" x="0px" y="0px" viewBox="0 0 512 512"
	 style="enable-background:new 0 0 512 512;" xml:space="preserve">
<style type="text/css">
	.st0{fill:#428DEC;}
</style>
<g>
	<g>
		<g>
			<g>
				<path class="st0" d="M428.5,204.5c-50.3-50.3-116-79.5-186.5-83.1V46c0-5.6-3.1-10.7-8.1-13.3s-11-2.2-15.6,1.1l-212,150
					c-4,2.8-6.3,7.4-6.3,12.2s2.4,9.4,6.3,12.2l212,150c4.6,3.2,10.6,3.7,15.6,1.1s8.1-7.7,8.1-13.3v-74.6
					c110.8,6.4,207.5,83,238.3,190.6l2.3,8.1c2.1,7.2,9.1,11.8,16.5,10.7c7.4-1,12.9-7.4,12.9-14.9v-60
					C512,329.9,482.4,258.3,428.5,204.5L428.5,204.5z M321.3,256.5C290.9,246.2,259.2,241,227,241c-8.3,0-15,6.7-15,15v61L41,196
					L212,75v61c0,8.3,6.7,15,15,15c134.6,0,245.2,104.8,254.4,237.1C445.9,326.4,388.9,279.5,321.3,256.5L321.3,256.5z"/>
			</g>
		</g>
	</g>
</g>
</svg>
